<svg width="10" height="10" viewBox="0 0 10 10" fill="none" xmlns="http://www.w3.org/2000/svg">
<path fill-rule="evenodd" clip-rule="evenodd" d="M5 0C5.12055 0 5.23617 0.0478894 5.32141 0.133133C5.40666 0.218377 5.45455 0.333993 5.45455 0.454545V4.54545H9.54545C9.66601 4.54545 9.78162 4.59334 9.86687 4.67859C9.95211 4.76383 10 4.87945 10 5C10 5.12055 9.95211 5.23617 9.86687 5.32141C9.78162 5.40666 9.66601 5.45455 9.54545 5.45455H5.45455V9.54545C5.45455 9.66601 5.40666 9.78162 5.32141 9.86687C5.23617 9.95211 5.12055 10 5 10C4.87945 10 4.76383 9.95211 4.67859 9.86687C4.59334 9.78162 4.54545 9.66601 4.54545 9.54545V5.45455H0.454545C0.333993 5.45455 0.218377 5.40666 0.133133 5.32141C0.0478894 5.23617 0 5.12055 0 5C0 4.87945 0.0478894 4.76383 0.133133 4.67859C0.218377 4.59334 0.333993 4.54545 0.454545 4.54545H4.54545V0.454545C4.54545 0.333993 4.59334 0.218377 4.67859 0.133133C4.76383 0.0478894 4.87945 0 5 0Z" fill="#111827"/>
</svg>
