<svg width="6" height="12" viewBox="0 0 6 12" fill="none" xmlns="http://www.w3.org/2000/svg">
<path d="M0.073277 10.2151C0.073277 10.1356 0.113016 10.0675 0.192493 10.0107L4.1777 5.99144L0.192493 1.9892C0.113016 1.92108 0.073277 1.8416 0.073277 1.75077C0.073277 1.65994 0.113016 1.58046 0.192493 1.51234L0.703417 1.00141C0.760187 0.944644 0.82831 0.91626 0.907787 0.91626C0.987264 0.91626 1.06674 0.944644 1.14622 1.00141L5.89782 5.77004C5.96594 5.82681 6 5.90061 6 5.99144C6 6.08227 5.96594 6.16175 5.89782 6.22987L1.14622 10.9644C1.08945 11.0439 1.00997 11.0837 0.907787 11.0837C0.805602 11.0837 0.737479 11.0439 0.703417 10.9644L0.192493 10.4535C0.113016 10.3967 0.073277 10.3173 0.073277 10.2151Z" fill="#4B5563"/>
</svg>
